<svg version="1.1" baseProfile="basic" id="KerkEnIT" xmlns="http://www.w3.org/2000/svg" xmlns:xlink="http://www.w3.org/1999/xlink" x="0px" y="0px" width="311.811px" height="155.906px" viewBox="0 0 311.811 155.906" xml:space="preserve"><g><g><path fill="#808081" d="M5.694,98.883V69.389h6.916v12.29l16.348-12.29h9.945l-19.548,13.89l21.949,15.604H30.272L12.61,85.909v12.975H5.694z"/><path fill="#808081" d="M46.048,98.883V74.706h25.95v4.287H51.992v5.258h11.66v4.173h-11.66v5.944h20.291v4.516H46.048z"/><path fill="#808081" d="M77.942,98.883V74.706H99.72c3.772,0,5.659,1.562,5.659,4.687v5.716c0,3.087-1.887,4.63-5.659,4.63h-3.315l11.489,9.146h-8.46l-10.117-9.146h-5.544v9.146H77.942z M97.205,78.878H83.772v6.688h13.433c1.79,0,2.687-0.647,2.687-1.943v-2.801C99.892,79.526,98.995,78.878,97.205,78.878z"/><path fill="#808081" d="M112.237,98.883V74.706h5.944v9.774l14.118-9.774h8.517l-16.69,11.203l18.577,12.975h-9.317l-15.204-10.917v10.917H112.237z"/><path fill="#B12B17" d="M259.704,98.883V69.389h6.859v29.494H259.704z"/><path fill="#B12B17" d="M292.512,74.648v24.235h-6.858V74.648h-13.547v-5.259h34.01v5.259H292.512z"/></g><g><g><linearGradient id="SVGID_1_" gradientUnits="userSpaceOnUse" x1="181.334" y1="0.1753" x2="204.1506" y2="68.6732"><stop  offset="0" style="stop-color:#9C1C20"/><stop  offset="1" style="stop-color:#D72228"/></linearGradient><path fill="url(#SVGID_1_)" d="M226.029,41.954c4.522-4.696,8.091-8.4,10.717-11.316c-8.368,0.578-19.862,3.698-34.527,9.151c-20.488-12.905-42.05-23.259-63.08-30.396c21.974,12.794,44.992,31.062,66.771,53.076C213.763,54.522,220.479,47.702,226.029,41.954z"/><linearGradient id="SVGID_2_" gradientUnits="userSpaceOnUse" x1="207.5645" y1="-8.5693" x2="230.3848" y2="59.9397"><stop  offset="0" style="stop-color:#9C1C20"/><stop  offset="1" style="stop-color:#D72228"/></linearGradient><path fill="url(#SVGID_2_)" d="M235.675,69.565c4.062-13.744,6.055-25.108,5.78-33.812c-2.116,3.396-5.237,7.604-9.316,12.76c-4.777,6.058-10.703,13.07-17.676,21.053C221.737,69.262,228.831,69.262,235.675,69.565z"/><linearGradient id="SVGID_3_" gradientUnits="userSpaceOnUse" x1="155.5303" y1="8.7695" x2="178.3497" y2="77.2757"><stop  offset="0" style="stop-color:#4F4F4F"/><stop  offset="1" style="stop-color:#B3B2B2"/></linearGradient><path fill="url(#SVGID_3_)" d="M197.895,70.762c0.57-0.605,1.168-1.218,1.73-1.816c-22.053-22.88-44.989-42.062-66.674-55.758c12.533,14.039,25.933,32.217,39.642,53.717c-1.606,2.832-3.231,5.699-4.866,8.601c5.223-1.114,10.546-2.104,15.992-2.942C188.489,71.834,193.219,71.243,197.895,70.762z"/></g><g><linearGradient id="SVGID_4_" gradientUnits="userSpaceOnUse" x1="180.4541" y1="75.4712" x2="200.3369" y2="155.9158"><stop  offset="0" style="stop-color:#4F4F4F"/><stop  offset="1" style="stop-color:#B3B2B2"/></linearGradient><path fill="url(#SVGID_4_)" d="M139.193,146.513c25.041-14.08,48.862-28.182,70.071-41.514c19.334,13.091,34.913,25.233,46.238,36.144c-10.562-19.69-26.974-41.608-47.97-63.892C187.761,98.421,164.351,122.167,139.193,146.513z"/><linearGradient id="SVGID_5_" gradientUnits="userSpaceOnUse" x1="226.6934" y1="64.0391" x2="246.576" y2="144.4829"><stop  offset="0" style="stop-color:#9C1C20"/><stop  offset="1" style="stop-color:#D72228"/></linearGradient><path fill="url(#SVGID_5_)" d="M258.961,135.017c-4.938-19.561-13.311-40.412-24.622-61.052c0.476-1.498,0.907-2.957,1.336-4.4c-6.844-0.303-13.938-0.303-21.212,0c-0.303,0.344-0.576,0.66-0.879,1.011C233.687,92.748,249.24,114.9,258.961,135.017z"/><linearGradient id="SVGID_6_" gradientUnits="userSpaceOnUse" x1="158.8037" y1="80.8286" x2="178.6857" y2="161.2696"><stop  offset="0" style="stop-color:#4F4F4F"/><stop  offset="1" style="stop-color:#B3B2B2"/></linearGradient><path fill="url(#SVGID_6_)" d="M197.895,70.762c-4.676,0.48-9.405,1.072-14.176,1.801c-5.446,0.839-10.77,1.828-15.992,2.942c-11.373,20.089-23.599,41.582-36.122,63.5C155.598,114.722,178.245,91.375,197.895,70.762z"/></g></g></g></svg>